#!OML:ASF I:\Actors\actors\Patient Classification 2\Patient 1\Session 1\actor1.ASF
:FULLY-SPECIFIED
:DEGREES
402
root -0.08658 18.8942 6.4897 21.6755 14.1278 2.3568
lowerback 15.9857 -0.504226 8.27067
upperback -6.35561 2.18237 6.1193
thorax -16.4178 0.599517 1.72805
lowerneck -19.0948 -13.6068 -6.73862
upperneck -5.5354 -17.6289 26.2944
head 4.73422 -7.65989 7.29573
rclavicle 1.59028e-015 1.90833e-014
rhumerus -59.6767 -6.66693 -79.8434
rradius 49.4877
rwrist 39.2106
rhand -4.67715 -46.2188
rfingers 7.12502
rthumb 21.1036 -75.0903
lclavicle 1.59028e-015 1.90833e-014
lhumerus -52.8184 -19.6109 119.424
lradius 45.8217
lwrist -13.9933
lhand 1.13373 -24.9044
lfingers 7.12502
lthumb 26.6758 3.23578
rfemur 0 0 0
rtibia 0
rfoot 0 0
rtoes 0
lfemur -30.4348 -19.1312 -11.5877
ltibia 24.8881
lfoot -17.5707 12.3819
ltoes -54.1609
403
root -0.0864166 18.8922 6.50822 21.5025 13.8005 2.35412
lowerback 15.7643 -0.500612 8.28739
upperback -6.41342 2.16521 6.11301
thorax -16.3482 0.590107 1.71625
lowerneck -19.0197 -13.7822 -6.74814
upperneck -5.28011 -17.9026 25.9498
head 4.79398 -7.79058 7.13959
rclavicle -5.56597e-015 -3.18055e-014
rhumerus -59.7054 -6.66593 -79.8504
rradius 49.3751
rwrist 39.2588
rhand -4.44348 -46.3834
rfingers 7.12502
rthumb 21.328 -75.2297
lclavicle -5.56597e-015 -3.18055e-014
lhumerus -52.875 -19.4161 119.259
lradius 45.7835
lwrist -14.157
lhand 1.62666 -24.8944
lfingers 7.12502
lthumb 27.1475 3.17309
rfemur 0 0 0
rtibia 0
rfoot 0 0
rtoes 0
lfemur -30.0466 -18.9351 -11.7778
ltibia 24.8064
lfoot -17.703 12.4397
ltoes -54.1715
404
root -0.0873963 18.8904 6.52732 21.3103 13.5009 2.33796
lowerback 15.5773 -0.499879 8.3113
upperback -6.483 2.1549 6.12485
thorax -16.3161 0.583741 1.72087
lowerneck -18.9366 -13.9639 -6.80255
upperneck -5.01977 -18.1713 25.5514
head 4.84933 -7.92118 6.97533
rclavicle -1.59028e-014 9.54166e-015
rhumerus -59.7654 -6.70149 -79.7907
rradius 49.2573
rwrist 39.3616
rhand -4.13056 -46.4417
rfingers 7.12502
rthumb 21.6286 -75.2537
lclavicle -1.59028e-014 9.54166e-015
lhumerus -52.9396 -19.2179 119.144
lradius 45.6781
lwrist -14.3852
lhand 2.03602 -24.9927
lfingers 7.12502
lthumb 27.539 3.01302
rfemur 0 0 0
rtibia 0
rfoot 0 0
rtoes 0
lfemur -29.6393 -18.6921 -11.9639
ltibia 24.7153
lfoot -17.7976 12.4165
ltoes -54.1681
405
root -0.0910539 18.8897 6.54331 21.1709 13.0581 2.34671
lowerback 15.4065 -0.442944 8.22896
upperback -6.54653 2.19819 6.13652
thorax -16.2865 0.612637 1.76855
lowerneck -18.928 -14.1914 -6.94253
upperneck -4.68982 -18.4975 25.1515
head 4.95348 -8.0686 6.80897
rclavicle 5.56597e-015 6.99722e-014
rhumerus -59.7939 -6.70519 -79.7035
rradius 49.1249
rwrist 39.4755
rhand -3.95169 -46.4364
rfingers 7.12502
rthumb 21.8004 -75.2286
lclavicle 5.56597e-015 6.99722e-014
lhumerus -52.9513 -19.0493 119.077
lradius 45.557
lwrist -14.5105
lhand 2.47261 -25.0296
lfingers 7.12502
lthumb 27.9565 2.90887
rfemur 0 0 0
rtibia 0
rfoot 0 0
rtoes 0
lfemur -29.2734 -18.3099 -12.2083
ltibia 24.6205
lfoot -17.8765 12.3276
ltoes -54.0537
406
root -0.0953253 18.8895 6.55675 21.1171 12.4882 2.38656
lowerback 15.1925 -0.349222 8.07931
upperback -6.61692 2.26437 6.10406
thorax -16.2353 0.655634 1.79567
lowerneck -19.0352 -14.4079 -6.98407
upperneck -4.27238 -18.8338 24.6695
head 5.08224 -8.21158 6.5947
rclavicle -7.15625e-015 2.8625e-014
rhumerus -59.7918 -6.70425 -79.6878
rradius 48.9498
rwrist 39.5827
rhand -3.94718 -46.448
rfingers 7.12502
rthumb 21.8047 -75.2396
lclavicle -7.15625e-015 2.8625e-014
lhumerus -52.9317 -18.8806 118.944
lradius 45.4313
lwrist -14.5787
lhand 2.86575 -24.9705
lfingers 7.12502
lthumb 28.3323 2.90615
rfemur 0 0 0
rtibia 0
rfoot 0 0
rtoes 0
lfemur -28.9858 -17.9385 -12.4709
ltibia 24.5188
lfoot -17.9816 12.3678
ltoes -53.9418
407
root -0.0980447 18.8884 6.57236 21.0363 12.0753 2.46838
lowerback 14.9634 -0.310711 7.98104
upperback -6.68633 2.26391 6.06002
thorax -16.1734 0.662502 1.80006
lowerneck -19.2383 -14.5838 -6.87039
upperneck -3.82489 -19.1277 24.0059
head 5.18711 -8.33638 6.30631
rclavicle 1.59028e-014 2.22639e-014
rhumerus -59.7682 -6.75178 -79.6672
rradius 48.7845
rwrist 39.6746
rhand -3.83671 -46.4821
rfingers 7.12502
rthumb 21.9108 -75.2614
lclavicle 1.59028e-014 2.22639e-014
lhumerus -52.9063 -18.7072 118.781
lradius 45.256
lwrist -14.8108
lhand 3.15245 -24.9122
lfingers 7.12502
lthumb 28.6062 2.91855
rfemur 0 0 0
rtibia 0
rfoot 0 0
rtoes 0
lfemur -28.6799 -17.7046 -12.7331
ltibia 24.4164
lfoot -18.0403 12.4308
ltoes -53.9415
408
root -0.100912 18.8868 6.59032 20.8901 11.8075 2.54255
lowerback 14.7587 -0.332251 7.94263
upperback -6.75104 2.20113 6.03343
thorax -16.1232 0.636141 1.80931
lowerneck -19.3627 -14.7245 -6.75781
upperneck -3.39601 -19.3624 23.2915
head 5.25784 -8.44447 6.01906
rclavicle 4.77083e-015 2.22639e-014
rhumerus -59.7572 -6.7426 -79.677
rradius 48.6488
rwrist 39.7045
rhand -3.58733 -46.6111
rfingers 7.12502
rthumb 22.1502 -75.3621
lclavicle 4.77083e-015 2.22639e-014
lhumerus -52.8962 -18.4776 118.595
lradius 45.1328
lwrist -15.1033
lhand 3.56035 -24.9299
lfingers 7.12502
lthumb 28.9959 2.83456
rfemur 0 0 0
rtibia 0
rfoot 0 0
rtoes 0
lfemur -28.3217 -17.4888 -12.9776
ltibia 24.3214
lfoot -18.0434 12.401
ltoes -54.0109
409
root -0.104366 18.8853 6.6082 20.7066 11.5687 2.58333
lowerback 14.5942 -0.378043 7.98014
upperback -6.81348 2.12388 5.98649
thorax -16.0937 0.593133 1.75724
lowerneck -19.4897 -14.8752 -6.71964
upperneck -2.88 -19.618 22.6683
head 5.37883 -8.55285 5.76514
rclavicle 6.36111e-015 -7.31528e-014
rhumerus -59.7325 -6.69841 -79.7843
rradius 48.4676
rwrist 39.7236
rhand -3.42156 -46.8337
rfingers 7.12502
rthumb 22.3093 -75.5658
lclavicle 6.36111e-015 -7.31528e-014
lhumerus -52.9217 -18.2444 118.369
lradius 45.0535
lwrist -15.3059
lhand 4.11349 -25.0226
lfingers 7.12502
lthumb 29.524 2.64978
rfemur 0 0 0
rtibia 0
rfoot 0 0
rtoes 0
lfemur -27.9369 -17.2406 -13.1961
ltibia 24.236
lfoot -18.0596 12.3324
ltoes -54.1218
